<?xml version="1.0" encoding="UTF-8"?>
<svg id="Layer_2" data-name="Layer 2" xmlns="http://www.w3.org/2000/svg" viewBox="0 0 578.86 207.48">
  <defs>
    <style>
      .cls-1 {
        stroke: #000;
        stroke-miterlimit: 10;
        stroke-width: .56px;
      }

      .cls-2 {
        fill: #68bd45;
      }

      .cls-3 {
        fill: #64cbff;
      }

      .cls-4 {
        fill: #64cb92;
      }
    </style>
  </defs>
  <g id="Layer_1-2" data-name="Layer 1">
    <g>
      <g>
        <path d="M547.19,12.98c5.26,1.55,10.35,3.64,15.08,6.45s9.04,6.12,12.32,10.3c1.67,2.13,2.07,4.7,.11,6.81s-5.01,1.98-7.49,1.17-3.83-2.54-4.47-5.11-.91-5.01-1.91-7.4c-1.24-2.96-3.16-5.4-5.48-7.59-2.63-2.49-5.31-4.91-7.97-7.37-1.32-1.22-3.3,.75-1.97,1.97,2.66,2.45,5.34,4.88,7.97,7.37,2.4,2.27,4.34,4.8,5.36,7.97,.89,2.75,.95,5.71,2.2,8.35s3.62,4.04,6.33,4.73c2.9,.75,6.19,.53,8.61-1.39,2.09-1.67,3.34-4.4,2.91-7.07-.48-3-2.92-5.37-4.99-7.41s-4.5-4.02-6.99-5.74c-5.73-3.95-12.2-6.77-18.86-8.73-1.73-.51-2.46,2.18-.74,2.69h0Z"/>
        <path class="cls-1" d="M551.66,2.38l.06,41.27c-.13,.11-1.86,1.56-5.09,1.59-3.32,.03-5.12-1.48-5.23-1.57-.02-13.76-.04-27.51-.06-41.27,.74-1.27,2.86-2.13,5.22-2.11,2.31,.01,4.37,.86,5.09,2.1Z"/>
        <path d="M543.19,96.49h6.79s.1,63.86,.1,63.86h-6.13c-.25-21.28-.51-42.57-.76-63.86Z"/>
        <path d="M549.98,92.49h-6.84c-.18-14.91-.36-29.82-.53-44.74,.65,.32,1.89,.83,3.53,.86,1.78,.02,3.12-.54,3.77-.87l.07,44.75Z"/>
        <path d="M547.11,207.47c-1.45-.11-2.71-1.56-2.64-3.33-.16-13.26-.32-26.52-.47-39.78h6.09s.06,39.7,.06,39.7c.11,1.98-1.43,3.53-3.04,3.42Z"/>
      </g>
      <g>
        <circle class="cls-3" cx="469.97" cy="29.59" r="29.3"/>
        <circle class="cls-3" cx="396.18" cy="102.43" r="29.3"/>
        <circle class="cls-3" cx="396.18" cy="177.93" r="29.3"/>
      </g>
      <g>
        <circle class="cls-2" cx="203.47" cy="29.59" r="29.3"/>
        <circle class="cls-2" cx="278.84" cy="29.59" r="29.3"/>
        <circle class="cls-2" cx="203.47" cy="175.91" r="29.3"/>
      </g>
      <g>
        <circle class="cls-4" cx="29.31" cy="104.96" r="29.3"/>
        <circle class="cls-4" cx="29.31" cy="29.59" r="29.3"/>
      </g>
    </g>
  </g>
</svg>