<?xml version="1.0" encoding="UTF-8"?>
<svg id="Layer_2" data-name="Layer 2" xmlns="http://www.w3.org/2000/svg" viewBox="0 0 596.26 344.64">
  <defs>
    <style>
      .cls-1 {
        font-family: Quicksand-Medium, Quicksand;
        font-size: 92px;
        font-weight: 500;
      }

      .cls-2 {
        stroke: #000;
        stroke-miterlimit: 10;
        stroke-width: .86px;
      }
    </style>
  </defs>
  <g id="Layer_1-2" data-name="Layer 1">
    <g>
      <path d="M547.26,20.09c8.06,2.37,15.87,5.57,23.11,9.86,3.62,2.14,7.1,4.53,10.33,7.22s6.53,5.68,9.11,9.05c1.16,1.51,2.15,3.27,2.15,5.22,0,1.68-.66,3.35-1.72,4.65-2.56,3.16-6.87,3.6-10.61,2.67-1.91-.47-3.96-1.19-5.42-2.56-1.31-1.23-2.06-2.86-2.57-4.56-1.17-3.91-1.44-8.01-2.95-11.84-1.91-4.86-4.92-8.86-8.69-12.43-4.1-3.89-8.3-7.68-12.45-11.51-2.04-1.88-5.1,1.16-3.05,3.05,4.04,3.73,8.11,7.44,12.12,11.2,3.49,3.27,6.46,6.89,8.13,11.43,1.53,4.16,1.63,8.71,3.27,12.83,.8,2.01,1.91,3.9,3.59,5.29,1.86,1.54,4.14,2.53,6.46,3.16,4.63,1.24,9.81,.9,13.66-2.17,3.41-2.73,5.24-7.33,4.25-11.64-1.04-4.54-4.98-8.21-8.22-11.32-3.4-3.27-7.13-6.22-11.04-8.85-8.65-5.81-18.34-9.98-28.31-12.92-2.67-.79-3.81,3.38-1.15,4.16h0Z"/>
      <path class="cls-2" d="M554.18,3.68l.1,63.85c-.2,.17-2.87,2.42-7.87,2.46-5.13,.04-7.92-2.28-8.09-2.43-.03-21.28-.07-42.57-.1-63.85,1.14-1.96,4.43-3.29,8.08-3.27,3.58,.02,6.76,1.33,7.88,3.24Z"/>
      <path d="M541.07,149.29l10.51-.02,.15,98.82h-9.49c-.39-32.93-.78-65.86-1.18-98.8Z"/>
      <path d="M551.57,143.09l-10.58,.02c-.27-23.08-.55-46.16-.82-69.24,1,.5,2.92,1.29,5.45,1.32,2.75,.04,4.82-.83,5.84-1.34l.11,69.24Z"/>
      <path d="M547.14,320.99c-2.24-.16-4.19-2.41-4.08-5.16-.24-20.52-.49-41.03-.73-61.55h9.42s.1,61.42,.1,61.42c.17,3.06-2.22,5.47-4.7,5.29Z"/>
      <text class="cls-1" transform="translate(0 320.08)"><tspan x="0" y="0">BE MY STEP</tspan></text>
      <g>
        <circle cx="476.74" cy="29.74" r="29.3"/>
        <circle cx="402.94" cy="102.58" r="29.3"/>
        <circle cx="402.94" cy="178.08" r="29.3"/>
      </g>
      <g>
        <circle cx="210.23" cy="29.74" r="29.3"/>
        <circle cx="285.6" cy="29.74" r="29.3"/>
        <circle cx="210.23" cy="176.07" r="29.3"/>
      </g>
      <g>
        <circle cx="36.07" cy="105.11" r="29.3"/>
        <circle cx="36.07" cy="29.74" r="29.3"/>
      </g>
    </g>
  </g>
</svg>