<?xml version="1.0" encoding="UTF-8"?>
<svg id="Layer_2" data-name="Layer 2" xmlns="http://www.w3.org/2000/svg" viewBox="0 0 579.33 207.2">
  <defs>
    <style>
      .cls-1 {
        fill: #fff;
      }
    </style>
  </defs>
  <g id="Layer_1-2" data-name="Layer 1">
    <g>
      <path class="cls-1" d="M547.06,13.17c5.23,1.54,10.27,3.61,14.96,6.4s9,6.06,12.23,10.23c1.49,1.93,1.88,4.22,.11,6.13s-4.7,1.8-7.02,1.04-3.54-2.37-4.14-4.77-.91-5-1.91-7.4c-1.26-3.04-3.22-5.55-5.6-7.81-2.63-2.49-5.31-4.91-7.97-7.37-1.77-1.64-4.43,1.01-2.65,2.65,2.66,2.45,5.34,4.88,7.97,7.37,2.33,2.21,4.24,4.66,5.24,7.76,.9,2.79,.98,5.79,2.24,8.47s3.8,4.23,6.61,4.95c3.08,.79,6.53,.52,9.07-1.52,2.23-1.79,3.49-4.69,3.03-7.54-.5-3.08-2.99-5.53-5.12-7.62s-4.57-4.08-7.08-5.81c-5.76-3.98-12.28-6.8-18.98-8.78-2.32-.68-3.31,2.93-1,3.62h0Z"/>
      <path class="cls-1" d="M551.66,2.1l.06,41.27c-.13,.11-1.86,1.56-5.09,1.59-3.32,.03-5.12-1.48-5.23-1.57-.02-13.76-.04-27.51-.06-41.27,.74-1.27,2.86-2.13,5.22-2.11,2.31,.01,4.37,.86,5.09,2.1Z"/>
      <path class="cls-1" d="M543.19,96.21h6.79s.1,63.86,.1,63.86h-6.13c-.25-21.28-.51-42.57-.76-63.86Z"/>
      <path class="cls-1" d="M549.98,92.21h-6.84c-.18-14.91-.36-29.82-.53-44.74,.65,.32,1.89,.83,3.53,.86,1.78,.02,3.12-.54,3.77-.87l.07,44.75Z"/>
      <path class="cls-1" d="M547.11,207.19c-1.45-.11-2.71-1.56-2.64-3.33-.16-13.26-.32-26.52-.47-39.78h6.09s.06,39.7,.06,39.7c.11,1.98-1.43,3.53-3.04,3.42Z"/>
      <g>
        <circle class="cls-1" cx="469.97" cy="29.31" r="29.3"/>
        <circle class="cls-1" cx="396.18" cy="102.15" r="29.3"/>
        <circle class="cls-1" cx="396.18" cy="177.65" r="29.3"/>
      </g>
      <g>
        <circle class="cls-1" cx="203.47" cy="29.31" r="29.3"/>
        <circle class="cls-1" cx="278.84" cy="29.31" r="29.3"/>
        <circle class="cls-1" cx="203.47" cy="175.63" r="29.3"/>
      </g>
      <g>
        <circle class="cls-1" cx="29.31" cy="104.68" r="29.3"/>
        <circle class="cls-1" cx="29.31" cy="29.31" r="29.3"/>
      </g>
    </g>
  </g>
</svg>